<svg xmlns="http://www.w3.org/2000/svg" width="16" height="16" viewBox="0 0 16 16" fill="currentColor">
	<path d="M5.45454 5.4544C5.68885 5.22008 6.06875 5.22008 6.30307 5.4544L8.00024 7.15158L9.69728 5.45454C9.9316 5.22022 10.3115 5.22022 10.5458 5.45454C10.7801 5.68885 10.7801 6.06875 10.5458 6.30307L8.84877 8.0001L10.5457 9.69704C10.78 9.93135 10.78 10.3113 10.5457 10.5456C10.3114 10.7799 9.93149 10.7799 9.69718 10.5456L8.00024 8.84863L6.30317 10.5457C6.06886 10.78 5.68896 10.78 5.45464 10.5457C5.22033 10.3114 5.22033 9.93149 5.45464 9.69718L7.15172 8.0001L5.45454 6.30293C5.22022 6.06861 5.22022 5.68871 5.45454 5.4544Z" fill="currentColor" fillOpacity="0.16"/>
	<path fillRule="evenodd" clipRule="evenodd" d="M1.3999 7.9999C1.3999 4.35482 4.35482 1.3999 7.9999 1.3999C11.645 1.3999 14.5999 4.35482 14.5999 7.9999C14.5999 11.645 11.645 14.5999 7.9999 14.5999C4.35482 14.5999 1.3999 11.645 1.3999 7.9999ZM7.9999 2.5999C5.01756 2.5999 2.5999 5.01756 2.5999 7.9999C2.5999 10.9822 5.01756 13.3999 7.9999 13.3999C10.9822 13.3999 13.3999 10.9822 13.3999 7.9999C13.3999 5.01756 10.9822 2.5999 7.9999 2.5999Z" fill="currentColor" fillOpacity="0.16"/>
</svg>