
<svg xmlns="http://www.w3.org/2000/svg" width="16" height="16" viewBox="0 0 16 16" fill="currentColor">
	<path fillRule="evenodd" clipRule="evenodd" d="M10.7761 7.14798C10.7761 9.15189 9.15165 10.7764 7.14774 10.7764C5.14383 10.7764 3.51934 9.15189 3.51934 7.14798C3.51934 5.14407 5.14383 3.51958 7.14774 3.51958C9.15165 3.51958 10.7761 5.14407 10.7761 7.14798ZM10.1116 10.9599C9.29352 11.597 8.26494 11.9764 7.14774 11.9764C4.48109 11.9764 2.31934 9.81463 2.31934 7.14798C2.31934 4.48133 4.48109 2.31958 7.14774 2.31958C9.81439 2.31958 11.9761 4.48133 11.9761 7.14798C11.9761 8.26493 11.5969 9.2933 10.9601 10.1113L14.1049 13.2561C14.3392 13.4905 14.3392 13.8704 14.1049 14.1047C13.8706 14.339 13.4907 14.339 13.2564 14.1047L10.1116 10.9599Z" fill="currentColor" fillOpacity="0.16"/>
</svg>